<svg xmlns="http://www.w3.org/2000/svg" xmlns:svg="http://www.w3.org/2000/svg" xmlns:xlink="http://www.w3.org/1999/xlink" id="svg2408" width="22" height="22" version="1.0"><defs id="defs2410"><linearGradient id="linearGradient3943"><stop id="stop3945" offset="0" style="stop-color:#000;stop-opacity:.06666667"/><stop id="stop3947" offset="1" style="stop-color:#000;stop-opacity:0"/></linearGradient><linearGradient id="linearGradient3931"><stop style="stop-color:#4999ab;stop-opacity:1" id="stop3933" offset="0"/><stop style="stop-color:#8dd0df;stop-opacity:1" id="stop3935" offset="1"/></linearGradient><linearGradient id="ButtonShadow" x1="45.448" x2="45.448" y1="92.54" y2="7.017" gradientTransform="scale(1.0058652,0.994169)" gradientUnits="userSpaceOnUse"><stop style="stop-color:#000;stop-opacity:1" id="stop3750" offset="0"/><stop style="stop-color:#000;stop-opacity:.58823532" id="stop3752" offset="1"/></linearGradient><linearGradient id="linearGradient3737"><stop style="stop-color:#fff;stop-opacity:1" id="stop3739" offset="0"/><stop style="stop-color:#fff;stop-opacity:0" id="stop3741" offset="1"/></linearGradient><linearGradient id="linearGradient3700"><stop style="stop-color:#2176c5;stop-opacity:1" id="stop3702" offset="0"/><stop style="stop-color:#68baf4;stop-opacity:1" id="stop3704" offset="1"/></linearGradient><linearGradient id="linearGradient3188" x1="36.357" x2="36.357" y1="6" y2="63.893" gradientUnits="userSpaceOnUse" xlink:href="#linearGradient3737"/><linearGradient id="linearGradient3613" x1="48" x2="48" y1="20.221" y2="138.661" gradientUnits="userSpaceOnUse" xlink:href="#linearGradient3737"/><radialGradient id="radialGradient3619" cx="48" cy="90.172" r="42" fx="48" fy="90.172" gradientTransform="matrix(1.1573129,0,0,0.99590774,-7.5510206,0.19713193)" gradientUnits="userSpaceOnUse" xlink:href="#linearGradient3737"/><clipPath id="clipPath3613" clipPathUnits="userSpaceOnUse"><rect id="rect3615" width="84" height="84" x="6" y="6" rx="6" ry="6" style="fill:#fff;fill-opacity:1;fill-rule:nonzero;stroke:none"/></clipPath><linearGradient id="linearGradient3617" x1="48" x2="48" y1="90" y2="5.988" gradientTransform="translate(-5,5)" gradientUnits="userSpaceOnUse" xlink:href="#linearGradient3931"/><linearGradient id="ButtonShadow-0" x1="45.448" x2="45.448" y1="92.54" y2="7.017" gradientTransform="matrix(1.0058652,0,0,0.994169,100,0)" gradientUnits="userSpaceOnUse"><stop style="stop-color:#000;stop-opacity:1" id="stop3750-8" offset="0"/><stop style="stop-color:#000;stop-opacity:.58823532" id="stop3752-5" offset="1"/></linearGradient><linearGradient id="linearGradient3780" x1="32.251" x2="32.251" y1="6.132" y2="90.239" gradientTransform="matrix(1.0238095,0,0,1.0119048,-1.1428571,-98.071429)" gradientUnits="userSpaceOnUse" xlink:href="#ButtonShadow-0"/><linearGradient id="linearGradient3772" x1="32.251" x2="32.251" y1="6.132" y2="90.239" gradientTransform="matrix(1.0238095,0,0,1.0119048,-1.1428571,-98.071429)" gradientUnits="userSpaceOnUse" xlink:href="#ButtonShadow-0"/><linearGradient id="linearGradient3725" x1="32.251" x2="32.251" y1="6.132" y2="90.239" gradientTransform="matrix(1.0238095,0,0,1.0119048,-1.1428571,-98.071429)" gradientUnits="userSpaceOnUse" xlink:href="#ButtonShadow-0"/><linearGradient id="linearGradient3721" x1="32.251" x2="32.251" y1="6.132" y2="90.239" gradientTransform="translate(0,-97)" gradientUnits="userSpaceOnUse" xlink:href="#ButtonShadow-0"/><linearGradient id="linearGradient3026" x1="32.251" x2="32.251" y1="6.132" y2="90.239" gradientTransform="matrix(1.0238095,0,0,1.0119048,-1.1428571,-98.071429)" gradientUnits="userSpaceOnUse" xlink:href="#ButtonShadow-0"/><linearGradient id="linearGradient3937" x1="-65.5" x2="-66.25" y1="68.75" y2="27.75" gradientUnits="userSpaceOnUse" xlink:href="#linearGradient3931"/><linearGradient id="linearGradient3941" x1="6" x2="7" y1="90" y2="89" gradientTransform="translate(-5,5)" gradientUnits="userSpaceOnUse" spreadMethod="reflect" xlink:href="#linearGradient3943"/><clipPath id="clipPath4034" clipPathUnits="userSpaceOnUse"><path id="path4036" d="M 48,22 C 40.270669,22 33.752489,27.156801 31.6875,34.21875 30.814299,34.080435 29.912104,34 29,34 c -9.388841,0 -17,7.611159 -17,17 0,9.388841 7.611159,17 17,17 l 38,0 C 76.388841,68 84,60.388841 84,51 84,41.611159 76.388841,34 67,34 66.087896,34 65.185701,34.08044 64.3125,34.21875 62.247511,27.156801 55.729331,22 48,22 z" style="color:#000;fill:#fff;fill-opacity:1;fill-rule:nonzero;stroke:none;stroke-width:2;marker:none;visibility:visible;display:inline;overflow:visible;enable-background:accumulate"/></clipPath><linearGradient id="linearGradient3943-3"><stop id="stop3945-4" offset="0" style="stop-color:#000;stop-opacity:.06666667"/><stop id="stop3947-7" offset="1" style="stop-color:#000;stop-opacity:0"/></linearGradient><linearGradient id="linearGradient4064" x1="6" x2="8" y1="90" y2="88" gradientTransform="translate(-6,-6)" gradientUnits="userSpaceOnUse" spreadMethod="reflect" xlink:href="#linearGradient3943-3"/><linearGradient id="linearGradient3943-6"><stop id="stop3945-1" offset="0" style="stop-color:#000;stop-opacity:.06666667"/><stop id="stop3947-0" offset="1" style="stop-color:#000;stop-opacity:0"/></linearGradient><linearGradient id="linearGradient4097" x1="6" x2="7" y1="90" y2="89" gradientTransform="translate(-6,-6)" gradientUnits="userSpaceOnUse" spreadMethod="reflect" xlink:href="#linearGradient3943-6"/><linearGradient id="linearGradient3943-9"><stop id="stop3945-5" offset="0" style="stop-color:#000;stop-opacity:.06666667"/><stop id="stop3947-04" offset="1" style="stop-color:#000;stop-opacity:0"/></linearGradient><linearGradient id="linearGradient3075" x1="6" x2="8" y1="90" y2="88" gradientTransform="translate(-6,-6)" gradientUnits="userSpaceOnUse" spreadMethod="reflect" xlink:href="#linearGradient3943-9"/><linearGradient id="linearGradient3943-94"><stop id="stop3945-9" offset="0" style="stop-color:#000;stop-opacity:.06666667"/><stop id="stop3947-09" offset="1" style="stop-color:#000;stop-opacity:0"/></linearGradient><linearGradient id="linearGradient3108" x1="6" x2="9" y1="90" y2="87" gradientTransform="translate(-6,-6)" gradientUnits="userSpaceOnUse" spreadMethod="reflect" xlink:href="#linearGradient3943-94"/><linearGradient id="linearGradient3941-7" x1="6" x2="7" y1="90" y2="89" gradientTransform="translate(-5,5)" gradientUnits="userSpaceOnUse" spreadMethod="reflect" xlink:href="#linearGradient3943-7"/><linearGradient id="linearGradient3943-7"><stop id="stop3945-6" offset="0" style="stop-color:#000;stop-opacity:.06666667"/><stop id="stop3947-73" offset="1" style="stop-color:#000;stop-opacity:0"/></linearGradient><linearGradient id="linearGradient3141" x1="6" x2="7" y1="90" y2="89" gradientTransform="translate(-6,-6)" gradientUnits="userSpaceOnUse" spreadMethod="reflect" xlink:href="#linearGradient3943-7"/><clipPath id="clipPath2849" clipPathUnits="userSpaceOnUse"><rect id="rect2851" width="20" height="20" x="1" y="1" rx="2" ry="2" style="fill:#fff;fill-opacity:1;fill-rule:evenodd;stroke:none;display:inline"/></clipPath><linearGradient id="linearGradient3335" x1="11.375" x2="11.375" y1="22" y2="-9.817" gradientUnits="userSpaceOnUse" xlink:href="#linearGradient3327"/><linearGradient id="linearGradient3327"><stop style="stop-color:#000;stop-opacity:1" id="stop3330" offset="0"/><stop style="stop-color:#000;stop-opacity:0" id="stop3333" offset="1"/></linearGradient><linearGradient id="linearGradient3181" x1="-3.061" x2="-3.061" y1="27.258" y2="7.254" gradientTransform="translate(11.119372,67.741802)" gradientUnits="userSpaceOnUse" xlink:href="#ButtonColor"/><linearGradient id="ButtonColor" x1="10.32" x2="10.32" y1="21" y2=".999" gradientUnits="userSpaceOnUse"><stop style="stop-color:#29669f;stop-opacity:1" id="stop3189" offset="0"/><stop style="stop-color:#88b6e0;stop-opacity:1" id="stop3191" offset="1"/></linearGradient><clipPath id="clipPath2849-8" clipPathUnits="userSpaceOnUse"><rect id="rect2851-0" width="20" height="20" x="1" y="1" rx="2" ry="2" style="fill:#fff;fill-opacity:1;fill-rule:evenodd;stroke:none;display:inline"/></clipPath><filter id="filter3194-4" width="1.36" height="1.36" x="-.18" y="-.18" color-interpolation-filters="sRGB"><feGaussianBlur id="feGaussianBlur3196-2" stdDeviation="1.2"/></filter><linearGradient id="linearGradient3181-3" x1="-3.061" x2="-3.061" y1="27.258" y2="7.254" gradientTransform="translate(11.119372,67.741802)" gradientUnits="userSpaceOnUse" xlink:href="#ButtonColor-1"/><linearGradient id="ButtonColor-1" x1="10.32" x2="10.32" y1="21" y2=".999" gradientUnits="userSpaceOnUse"><stop style="stop-color:#29669f;stop-opacity:1" id="stop3189-4" offset="0"/><stop style="stop-color:#88b6e0;stop-opacity:1" id="stop3191-6" offset="1"/></linearGradient><linearGradient id="linearGradient3291" x1="11.375" x2="11.375" y1="22" y2="-9.817" gradientUnits="userSpaceOnUse" xlink:href="#linearGradient3327"/><linearGradient id="linearGradient3305" x1="48" x2="48" y1="90" y2="5.988" gradientTransform="translate(-5,5)" gradientUnits="userSpaceOnUse" xlink:href="#linearGradient3931"/><linearGradient id="linearGradient3307" x1="6" x2="7" y1="90" y2="89" gradientTransform="translate(-5,5)" gradientUnits="userSpaceOnUse" spreadMethod="reflect" xlink:href="#linearGradient3943"/><linearGradient id="linearGradient3309" x1="6" x2="7" y1="90" y2="89" gradientTransform="translate(-5,5)" gradientUnits="userSpaceOnUse" spreadMethod="reflect" xlink:href="#linearGradient3943-7"/><linearGradient id="linearGradient3321" x1="6" x2="7" y1="90" y2="89" gradientTransform="matrix(0.23809524,0,0,0.23809524,-0.428571,73.571428)" gradientUnits="userSpaceOnUse" spreadMethod="reflect" xlink:href="#linearGradient3943"/><linearGradient id="linearGradient3325" x1="48" x2="48" y1="90" y2="5.988" gradientTransform="matrix(0.23809524,0,0,0.23809524,-0.42857144,73.571428)" gradientUnits="userSpaceOnUse" xlink:href="#linearGradient3931"/><linearGradient id="linearGradient3325-0" x1="48" x2="48" y1="90" y2="5.988" gradientTransform="matrix(0.23809524,0,0,0.23809524,-0.42857144,73.571428)" gradientUnits="userSpaceOnUse" xlink:href="#linearGradient3931-9"/><linearGradient id="linearGradient3931-9"><stop style="stop-color:#4999ab;stop-opacity:1" id="stop3933-7" offset="0"/><stop style="stop-color:#8dd0df;stop-opacity:1" id="stop3935-5" offset="1"/></linearGradient><linearGradient id="linearGradient3342" x1="48" x2="48" y1="90" y2="5.988" gradientTransform="matrix(0.23809524,0,0,0.23809524,-1.4285714,-1.428572)" gradientUnits="userSpaceOnUse" xlink:href="#linearGradient3931-9"/><linearGradient id="linearGradient3321-8" x1="6" x2="10.2" y1="90" y2="85.8" gradientTransform="matrix(0.23809524,0,0,0.23809524,-0.428571,73.571428)" gradientUnits="userSpaceOnUse" spreadMethod="reflect" xlink:href="#linearGradient3943-8"/><linearGradient id="linearGradient3943-8"><stop id="stop3945-58" offset="0" style="stop-color:#000;stop-opacity:.06666667"/><stop id="stop3947-4" offset="1" style="stop-color:#000;stop-opacity:0"/></linearGradient><linearGradient id="linearGradient3377" x1="6" x2="7" y1="90" y2="89" gradientTransform="matrix(0.23809524,0,0,0.23809524,-1.428571,-1.428572)" gradientUnits="userSpaceOnUse" spreadMethod="reflect" xlink:href="#linearGradient3943-8"/><linearGradient id="linearGradient3321-8-7" x1="6" x2="10.2" y1="90" y2="85.8" gradientTransform="matrix(0.23809524,0,0,0.23809524,-0.428571,73.571428)" gradientUnits="userSpaceOnUse" spreadMethod="reflect" xlink:href="#linearGradient3943-8-1"/><linearGradient id="linearGradient3943-8-1"><stop id="stop3945-58-3" offset="0" style="stop-color:#000;stop-opacity:.06666667"/><stop id="stop3947-4-8" offset="1" style="stop-color:#000;stop-opacity:0"/></linearGradient><linearGradient id="linearGradient3410" x1="6" x2="10.2" y1="90" y2="85.8" gradientTransform="matrix(0.23809524,0,0,0.23809524,-1.428571,-1.428572)" gradientUnits="userSpaceOnUse" spreadMethod="reflect" xlink:href="#linearGradient3943-8-1"/><linearGradient id="linearGradient3321-8-3" x1="6" x2="10.2" y1="90" y2="85.8" gradientTransform="matrix(0.23809524,0,0,0.23809524,-0.428571,147.57143)" gradientUnits="userSpaceOnUse" spreadMethod="reflect" xlink:href="#linearGradient3943-8-0"/><linearGradient id="linearGradient3943-8-0"><stop id="stop3945-58-0" offset="0" style="stop-color:#000;stop-opacity:.06666667"/><stop id="stop3947-4-4" offset="1" style="stop-color:#000;stop-opacity:0"/></linearGradient><linearGradient id="linearGradient4233" x1="6" x2="10.2" y1="90" y2="85.8" gradientTransform="matrix(0.23809524,0,0,0.23809524,-1.428571,-1.428572)" gradientUnits="userSpaceOnUse" spreadMethod="reflect" xlink:href="#linearGradient3943-8-0"/><clipPath id="clipPath4302" clipPathUnits="userSpaceOnUse"><path id="path4304" d="M 11,79 C 9.067003,79 7.466735,80.364767 7.09375,82.1875 6.744792,82.088078 6.380856,82 6,82 c -2.209139,0 -4,1.790861 -4,4 0,2.209139 1.790861,4 4,4 l 10,0 c 2.209139,0 4,-1.790861 4,-4 0,-2.209139 -1.790861,-4 -4,-4 -0.380856,0 -0.744792,0.08808 -1.09375,0.1875 C 14.533265,80.364767 12.932997,79 11,79 z" style="color:#000;fill:#fff;fill-opacity:1;fill-rule:nonzero;stroke:none;stroke-width:1;marker:none;visibility:visible;display:inline;overflow:visible;enable-background:accumulate"/></clipPath><filter id="filter4318" width="2.2" height="2.2" x="-.6" y="-.6"><feGaussianBlur id="feGaussianBlur4320" stdDeviation="1"/></filter><filter id="filter4322" width="2.2" height="2.2" x="-.6" y="-.6"><feGaussianBlur id="feGaussianBlur4324" stdDeviation="1"/></filter><filter id="filter4326" width="2.2" height="2.2" x="-.6" y="-.6"><feGaussianBlur id="feGaussianBlur4328" stdDeviation="1"/></filter></defs><metadata id="metadata2413"/><g id="layer3" transform="translate(0,-74)" style="display:inline"><g style="display:inline" id="g3337" transform="translate(0,74)"><rect id="rect3371" width="21" height="21.5" x=".5" y=".5" rx="2.5" ry="2.5" style="opacity:.3;fill:url(#linearGradient3291);fill-opacity:1;stroke:none;display:inline"/><rect style="opacity:.5;fill:#000;fill-opacity:1;stroke:none;display:inline" id="rect2553" width="20" height="20" x="1" y="2" rx="2.381" ry="2.326"/></g></g><g id="layer1" transform="translate(0,-74)" style="display:inline"><rect style="color:#000;fill:url(#linearGradient3325-0);fill-opacity:1;fill-rule:nonzero;stroke:none;marker:none;visibility:visible;display:inline;overflow:visible;enable-background:accumulate" id="rect3173" width="20" height="20" x="1" y="75" rx="2" ry="2"/><path id="path4216" d="M 11,88 C 9.496558,88 8.251905,88.372209 7.961806,88.869318 7.690393,88.842198 7.407332,88.818178 7.111111,88.818178 5.392892,88.818182 4,89.306598 4,89.909091 4,90.511583 5.392892,91 7.111111,91 l 7.777778,0 C 16.607108,91 18,90.511583 18,89.909091 c 0,-0.602493 -1.392892,-1.090909 -3.111111,-1.090909 -0.296221,0 -0.579283,0.02402 -0.850695,0.05114 C 13.748095,88.372209 12.503442,88 11,88 z" style="opacity:.5;color:#000;fill:#000;fill-opacity:1;fill-rule:nonzero;stroke:none;stroke-width:1;marker:none;visibility:visible;display:inline;overflow:visible;enable-background:accumulate"/><path style="opacity:.25;fill:#fff;fill-opacity:1;fill-rule:evenodd;stroke:none;display:inline" id="rect3183" d="m 2.9999999,75 c -1.108,0 -1.99999997,0.892 -1.99999997,2 l 0,1 c 0,-1.108 0.89199997,-2 1.99999997,-2 L 19,76 c 1.108,0 2,0.892 2,2 l 0,-1 c 0,-1.108 -0.892,-2 -2,-2 L 2.9999999,75 z"/><path id="path3188" d="M 2.9999999,94.999999 C 1.8919999,94.999999 0.99999993,94.108 0.99999993,93 l 0,-1 c 0,1.108 0.89199997,2 1.99999997,2 L 19,94 c 1.108,0 2,-0.892 2,-2 l 0,1 c 0,1.108 -0.892,1.999999 -2,1.999999 l -16.0000001,0 z" style="opacity:.15;fill:#000;fill-opacity:1;fill-rule:evenodd;stroke:none;display:inline"/><rect id="rect3360" width="20" height="20" x="1" y="75" rx="2" ry="2" style="color:#000;fill:url(#linearGradient3321-8);fill-opacity:1;fill-rule:nonzero;stroke:none;marker:none;visibility:visible;display:inline;overflow:visible;enable-background:accumulate"/><path style="color:#000;fill:#fff;fill-opacity:1;fill-rule:nonzero;stroke:none;stroke-width:1;marker:none;visibility:visible;display:inline;overflow:visible;enable-background:accumulate" id="path4196" d="M 11,79 C 9.067003,79 7.466735,80.364767 7.09375,82.1875 6.744792,82.088078 6.380856,82 6,82 c -2.209139,0 -4,1.790861 -4,4 0,2.209139 1.790861,4 4,4 l 10,0 c 2.209139,0 4,-1.790861 4,-4 0,-2.209139 -1.790861,-4 -4,-4 -0.380856,0 -0.744792,0.08808 -1.09375,0.1875 C 14.533265,80.364767 12.932997,79 11,79 z"/><g id="g4295" clip-path="url(#clipPath4302)"><path style="opacity:.15;color:#000;fill:#000;fill-opacity:1;fill-rule:nonzero;stroke:none;stroke-width:1;marker:none;visibility:visible;display:inline;overflow:visible;filter:url(#filter4322);enable-background:accumulate" id="path4206" d="m 6,10 a 2,2 0 1 1 -4,0 2,2 0 1 1 4,0 z" transform="translate(8,70)"/><path id="path4208" d="m 6,10 a 2,2 0 1 1 -4,0 2,2 0 1 1 4,0 z" transform="translate(14,75)" style="opacity:.15;color:#000;fill:#000;fill-opacity:1;fill-rule:nonzero;stroke:none;stroke-width:1;marker:none;visibility:visible;display:inline;overflow:visible;filter:url(#filter4318);enable-background:accumulate"/><path style="opacity:.15;color:#000;fill:#000;fill-opacity:1;fill-rule:nonzero;stroke:none;stroke-width:1;marker:none;visibility:visible;display:inline;overflow:visible;filter:url(#filter4326);enable-background:accumulate" id="path4204" d="m 6,10 a 2,2 0 1 1 -4,0 2,2 0 1 1 4,0 z" transform="translate(1,74)"/></g><path style="fill:#f17b27;fill-opacity:1;stroke:none" id="path3977" d="m 9.2264151,82.962265 4.8301889,2.415093 -4.8301889,2.415095 z"/><path style="opacity:.5;color:#000;fill:url(#linearGradient3321-8-3);fill-opacity:1;fill-rule:nonzero;stroke:none;stroke-width:1;marker:none;visibility:visible;display:inline;overflow:visible;enable-background:accumulate" id="path4213" d="M 2.03125,86.3125 C 2.191887,88.374385 3.896884,90 6,90 l 10,0 c 2.103116,0 3.808113,-1.625615 3.96875,-3.6875 C 19.50786,87.825268 15.659903,89 11,89 6.340097,89 2.49214,87.825268 2.03125,86.3125 z"/></g><g id="layer5" transform="translate(0,-74)" style="display:inline"><rect style="opacity:.15;fill:#fff;fill-opacity:1;fill-rule:nonzero;stroke:none;display:inline;filter:url(#filter3194-4)" id="rect2410" width="16" height="16" x="3" y="3" clip-path="url(#clipPath2849-8)" rx="2" ry="2" transform="translate(0,74)"/></g></svg>