<svg xmlns="http://www.w3.org/2000/svg" xmlns:svg="http://www.w3.org/2000/svg" xmlns:xlink="http://www.w3.org/1999/xlink" id="svg2408" width="16" height="16" version="1.0"><defs id="defs2410"><linearGradient id="linearGradient3943"><stop id="stop3945" offset="0" style="stop-color:#000;stop-opacity:.06666667"/><stop id="stop3947" offset="1" style="stop-color:#000;stop-opacity:0"/></linearGradient><linearGradient id="linearGradient3931"><stop style="stop-color:#4999ab;stop-opacity:1" id="stop3933" offset="0"/><stop style="stop-color:#8dd0df;stop-opacity:1" id="stop3935" offset="1"/></linearGradient><linearGradient id="ButtonShadow" x1="45.448" x2="45.448" y1="92.54" y2="7.017" gradientTransform="scale(1.0058652,0.994169)" gradientUnits="userSpaceOnUse"><stop style="stop-color:#000;stop-opacity:1" id="stop3750" offset="0"/><stop style="stop-color:#000;stop-opacity:.58823532" id="stop3752" offset="1"/></linearGradient><linearGradient id="linearGradient3737"><stop style="stop-color:#fff;stop-opacity:1" id="stop3739" offset="0"/><stop style="stop-color:#fff;stop-opacity:0" id="stop3741" offset="1"/></linearGradient><linearGradient id="linearGradient3700"><stop style="stop-color:#2176c5;stop-opacity:1" id="stop3702" offset="0"/><stop style="stop-color:#68baf4;stop-opacity:1" id="stop3704" offset="1"/></linearGradient><filter id="filter3794" width="1.384" height="1.384" x="-.192" y="-.192" color-interpolation-filters="sRGB"><feGaussianBlur id="feGaussianBlur3796" stdDeviation="5.28"/></filter><linearGradient id="linearGradient3613" x1="48" x2="48" y1="20.221" y2="138.661" gradientUnits="userSpaceOnUse" xlink:href="#linearGradient3737"/><clipPath id="clipPath3613" clipPathUnits="userSpaceOnUse"><rect id="rect3615" width="84" height="84" x="6" y="6" rx="6" ry="6" style="fill:#fff;fill-opacity:1;fill-rule:nonzero;stroke:none"/></clipPath><linearGradient id="ButtonShadow-0" x1="45.448" x2="45.448" y1="92.54" y2="7.017" gradientTransform="matrix(1.0058652,0,0,0.994169,100,0)" gradientUnits="userSpaceOnUse"><stop style="stop-color:#000;stop-opacity:1" id="stop3750-8" offset="0"/><stop style="stop-color:#000;stop-opacity:.58823532" id="stop3752-5" offset="1"/></linearGradient><linearGradient id="linearGradient3937" x1="-65.5" x2="-66.25" y1="68.75" y2="27.75" gradientUnits="userSpaceOnUse" xlink:href="#linearGradient3931"/><clipPath id="clipPath4034" clipPathUnits="userSpaceOnUse"><path id="path4036" d="M 48,22 C 40.270669,22 33.752489,27.156801 31.6875,34.21875 30.814299,34.080435 29.912104,34 29,34 c -9.388841,0 -17,7.611159 -17,17 0,9.388841 7.611159,17 17,17 l 38,0 C 76.388841,68 84,60.388841 84,51 84,41.611159 76.388841,34 67,34 66.087896,34 65.185701,34.08044 64.3125,34.21875 62.247511,27.156801 55.729331,22 48,22 z" style="color:#000;fill:#fff;fill-opacity:1;fill-rule:nonzero;stroke:none;stroke-width:2;marker:none;visibility:visible;display:inline;overflow:visible;enable-background:accumulate"/></clipPath><linearGradient id="linearGradient3943-3"><stop id="stop3945-4" offset="0" style="stop-color:#000;stop-opacity:.06666667"/><stop id="stop3947-7" offset="1" style="stop-color:#000;stop-opacity:0"/></linearGradient><linearGradient id="linearGradient4064" x1="6" x2="8" y1="90" y2="88" gradientTransform="translate(-6,-6)" gradientUnits="userSpaceOnUse" spreadMethod="reflect" xlink:href="#linearGradient3943-3"/><linearGradient id="linearGradient3943-6"><stop id="stop3945-1" offset="0" style="stop-color:#000;stop-opacity:.06666667"/><stop id="stop3947-0" offset="1" style="stop-color:#000;stop-opacity:0"/></linearGradient><linearGradient id="linearGradient4097" x1="6" x2="7" y1="90" y2="89" gradientTransform="translate(-6,-6)" gradientUnits="userSpaceOnUse" spreadMethod="reflect" xlink:href="#linearGradient3943-6"/><linearGradient id="linearGradient3943-9"><stop id="stop3945-5" offset="0" style="stop-color:#000;stop-opacity:.06666667"/><stop id="stop3947-04" offset="1" style="stop-color:#000;stop-opacity:0"/></linearGradient><linearGradient id="linearGradient3075" x1="6" x2="8" y1="90" y2="88" gradientTransform="translate(-6,-6)" gradientUnits="userSpaceOnUse" spreadMethod="reflect" xlink:href="#linearGradient3943-9"/><linearGradient id="linearGradient3943-94"><stop id="stop3945-9" offset="0" style="stop-color:#000;stop-opacity:.06666667"/><stop id="stop3947-09" offset="1" style="stop-color:#000;stop-opacity:0"/></linearGradient><linearGradient id="linearGradient3108" x1="6" x2="9" y1="90" y2="87" gradientTransform="translate(-6,-6)" gradientUnits="userSpaceOnUse" spreadMethod="reflect" xlink:href="#linearGradient3943-94"/><linearGradient id="linearGradient3943-7"><stop id="stop3945-6" offset="0" style="stop-color:#000;stop-opacity:.06666667"/><stop id="stop3947-73" offset="1" style="stop-color:#000;stop-opacity:0"/></linearGradient><linearGradient id="linearGradient3141" x1="6" x2="7" y1="90" y2="89" gradientTransform="translate(-6,-6)" gradientUnits="userSpaceOnUse" spreadMethod="reflect" xlink:href="#linearGradient3943-7"/><clipPath id="clipPath2849" clipPathUnits="userSpaceOnUse"><rect id="rect2851" width="20" height="20" x="1" y="1" rx="2" ry="2" style="fill:#fff;fill-opacity:1;fill-rule:evenodd;stroke:none;display:inline"/></clipPath><filter id="filter3194" width="1.36" height="1.36" x="-.18" y="-.18" color-interpolation-filters="sRGB"><feGaussianBlur id="feGaussianBlur3196" stdDeviation="1.2"/></filter><linearGradient id="linearGradient3327"><stop style="stop-color:#000;stop-opacity:1" id="stop3330" offset="0"/><stop style="stop-color:#000;stop-opacity:0" id="stop3333" offset="1"/></linearGradient><linearGradient id="ButtonColor" x1="10.32" x2="10.32" y1="21" y2=".999" gradientUnits="userSpaceOnUse"><stop style="stop-color:#29669f;stop-opacity:1" id="stop3189" offset="0"/><stop style="stop-color:#88b6e0;stop-opacity:1" id="stop3191" offset="1"/></linearGradient><clipPath id="clipPath2849-8" clipPathUnits="userSpaceOnUse"><rect id="rect2851-0" width="20" height="20" x="1" y="1" rx="2" ry="2" style="fill:#fff;fill-opacity:1;fill-rule:evenodd;stroke:none;display:inline"/></clipPath><filter id="filter3194-4" width="1.36" height="1.36" x="-.18" y="-.18" color-interpolation-filters="sRGB"><feGaussianBlur id="feGaussianBlur3196-2" stdDeviation="1.2"/></filter><linearGradient id="linearGradient3181-3" x1="-3.061" x2="-3.061" y1="27.258" y2="7.254" gradientTransform="translate(11.119372,67.741802)" gradientUnits="userSpaceOnUse" xlink:href="#ButtonColor-1"/><linearGradient id="ButtonColor-1" x1="10.32" x2="10.32" y1="21" y2=".999" gradientUnits="userSpaceOnUse"><stop style="stop-color:#29669f;stop-opacity:1" id="stop3189-4" offset="0"/><stop style="stop-color:#88b6e0;stop-opacity:1" id="stop3191-6" offset="1"/></linearGradient><linearGradient id="linearGradient3291" x1="11.375" x2="11.375" y1="22" y2="-9.817" gradientUnits="userSpaceOnUse" xlink:href="#linearGradient3327"/><linearGradient id="linearGradient3325-0" x1="48" x2="48" y1="90" y2="5.988" gradientTransform="matrix(0.23809524,0,0,0.23809524,-0.42857144,73.571428)" gradientUnits="userSpaceOnUse" xlink:href="#linearGradient3931-9"/><linearGradient id="linearGradient3931-9"><stop style="stop-color:#4999ab;stop-opacity:1" id="stop3933-7" offset="0"/><stop style="stop-color:#8dd0df;stop-opacity:1" id="stop3935-5" offset="1"/></linearGradient><linearGradient id="linearGradient3342" x1="48" x2="48" y1="90" y2="5.988" gradientTransform="matrix(0.23809524,0,0,0.23809524,-1.4285714,-1.428572)" gradientUnits="userSpaceOnUse" xlink:href="#linearGradient3931-9"/><linearGradient id="linearGradient3321-8" x1="6" x2="10.2" y1="90" y2="85.8" gradientTransform="matrix(0.23809524,0,0,0.23809524,-0.428571,73.571428)" gradientUnits="userSpaceOnUse" spreadMethod="reflect" xlink:href="#linearGradient3943-8"/><linearGradient id="linearGradient3943-8"><stop id="stop3945-58" offset="0" style="stop-color:#000;stop-opacity:.06666667"/><stop id="stop3947-4" offset="1" style="stop-color:#000;stop-opacity:0"/></linearGradient><linearGradient id="linearGradient3377" x1="6" x2="7" y1="90" y2="89" gradientTransform="matrix(0.23809524,0,0,0.23809524,-1.428571,-1.428572)" gradientUnits="userSpaceOnUse" spreadMethod="reflect" xlink:href="#linearGradient3943-8"/><linearGradient id="linearGradient3943-8-1"><stop id="stop3945-58-3" offset="0" style="stop-color:#000;stop-opacity:.06666667"/><stop id="stop3947-4-8" offset="1" style="stop-color:#000;stop-opacity:0"/></linearGradient><linearGradient id="linearGradient3410" x1="6" x2="10.2" y1="90" y2="85.8" gradientTransform="matrix(0.23809524,0,0,0.23809524,-1.428571,-1.428572)" gradientUnits="userSpaceOnUse" spreadMethod="reflect" xlink:href="#linearGradient3943-8-1"/><linearGradient id="linearGradient3321-8-3" x1="6" x2="10.2" y1="90" y2="85.8" gradientTransform="matrix(0.23809524,0,0,0.23809524,-0.428571,147.57143)" gradientUnits="userSpaceOnUse" spreadMethod="reflect" xlink:href="#linearGradient3943-8-0"/><linearGradient id="linearGradient3943-8-0"><stop id="stop3945-58-0" offset="0" style="stop-color:#000;stop-opacity:.06666667"/><stop id="stop3947-4-4" offset="1" style="stop-color:#000;stop-opacity:0"/></linearGradient><linearGradient id="linearGradient4233" x1="6" x2="10.2" y1="90" y2="85.8" gradientTransform="matrix(0.23809524,0,0,0.23809524,-1.428571,-1.428572)" gradientUnits="userSpaceOnUse" spreadMethod="reflect" xlink:href="#linearGradient3943-8-0"/><clipPath id="clipPath4302" clipPathUnits="userSpaceOnUse"><path id="path4304" d="M 11,79 C 9.067003,79 7.466735,80.364767 7.09375,82.1875 6.744792,82.088078 6.380856,82 6,82 c -2.209139,0 -4,1.790861 -4,4 0,2.209139 1.790861,4 4,4 l 10,0 c 2.209139,0 4,-1.790861 4,-4 0,-2.209139 -1.790861,-4 -4,-4 -0.380856,0 -0.744792,0.08808 -1.09375,0.1875 C 14.533265,80.364767 12.932997,79 11,79 z" style="color:#000;fill:#fff;fill-opacity:1;fill-rule:nonzero;stroke:none;stroke-width:1;marker:none;visibility:visible;display:inline;overflow:visible;enable-background:accumulate"/></clipPath><filter id="filter4318" width="2.2" height="2.2" x="-.6" y="-.6" color-interpolation-filters="sRGB"><feGaussianBlur id="feGaussianBlur4320" stdDeviation="1"/></filter><filter id="filter4322" width="2.2" height="2.2" x="-.6" y="-.6" color-interpolation-filters="sRGB"><feGaussianBlur id="feGaussianBlur4324" stdDeviation="1"/></filter><filter id="filter4326" width="2.2" height="2.2" x="-.6" y="-.6" color-interpolation-filters="sRGB"><feGaussianBlur id="feGaussianBlur4328" stdDeviation="1"/></filter><linearGradient id="linearGradient3204" x1="1" x2="15" y1="9" y2="9" gradientTransform="translate(-17,-2)" gradientUnits="userSpaceOnUse" xlink:href="#ButtonColor-6"/><linearGradient id="ButtonColor-6" x1="10.32" x2="10.32" y1="21" y2=".999" gradientUnits="userSpaceOnUse"><stop style="stop-color:#29669f;stop-opacity:1" id="stop3189-43" offset="0"/><stop style="stop-color:#88b6e0;stop-opacity:1" id="stop3191-5" offset="1"/></linearGradient><linearGradient id="linearGradient3629" x1="0" x2="29.017" y1="8" y2="8" gradientTransform="matrix(0,-1,1,0,0,96)" gradientUnits="userSpaceOnUse" xlink:href="#linearGradient3327-3"/><linearGradient id="linearGradient3327-3"><stop style="stop-color:#000;stop-opacity:1" id="stop3330-7" offset="0"/><stop style="stop-color:#000;stop-opacity:0" id="stop3333-3" offset="1"/></linearGradient><linearGradient id="linearGradient3059" x1="1" x2="15" y1="9" y2="9" gradientTransform="translate(-97,-2)" gradientUnits="userSpaceOnUse" xlink:href="#ButtonColor-6"/><linearGradient id="linearGradient4417" x1="48" x2="48" y1="90" y2="5.988" gradientTransform="matrix(0.23809524,0,0,0.23809524,-0.42857144,73.571428)" gradientUnits="userSpaceOnUse" xlink:href="#linearGradient3931-9"/><linearGradient id="linearGradient4419" x1="6" x2="10.2" y1="90" y2="85.8" gradientTransform="matrix(0.23809524,0,0,0.23809524,-0.428571,73.571428)" gradientUnits="userSpaceOnUse" spreadMethod="reflect" xlink:href="#linearGradient3943-8"/><linearGradient id="linearGradient4421" x1="6" x2="10.2" y1="90" y2="85.8" gradientTransform="matrix(0.23809524,0,0,0.23809524,-0.428571,147.57143)" gradientUnits="userSpaceOnUse" spreadMethod="reflect" xlink:href="#linearGradient3943-8-0"/><linearGradient id="linearGradient4417-3" x1="48" x2="48" y1="90" y2="5.988" gradientTransform="matrix(0.23809524,0,0,0.23809524,-0.42857144,73.571428)" gradientUnits="userSpaceOnUse" xlink:href="#linearGradient3931-9-7"/><linearGradient id="linearGradient3931-9-7"><stop style="stop-color:#4999ab;stop-opacity:1" id="stop3933-7-1" offset="0"/><stop style="stop-color:#8dd0df;stop-opacity:1" id="stop3935-5-2" offset="1"/></linearGradient><linearGradient id="linearGradient4438" x1="48" x2="48" y1="90" y2="5.988" gradientTransform="matrix(0.19047619,0,0,0.19047619,-1.1428572,78.857142)" gradientUnits="userSpaceOnUse" xlink:href="#linearGradient3931-9-7"/><linearGradient id="linearGradient4417-5" x1="-401.4" x2="-334.2" y1="-275.4" y2="-275.4" gradientTransform="matrix(0.23809524,0,0,0.23809524,-0.42857144,73.571428)" gradientUnits="userSpaceOnUse" xlink:href="#linearGradient3931-9-70"/><linearGradient id="linearGradient3931-9-70"><stop style="stop-color:#4999ab;stop-opacity:1" id="stop3933-7-2" offset="0"/><stop style="stop-color:#8dd0df;stop-opacity:1" id="stop3935-5-6" offset="1"/></linearGradient><linearGradient id="linearGradient4438-0" x1="48" x2="48" y1="90" y2="5.988" gradientTransform="matrix(0.19047619,0,0,0.19047619,-1.1428572,-1.1428576)" gradientUnits="userSpaceOnUse" xlink:href="#linearGradient3931-9-70"/><linearGradient id="linearGradient3943-8-7"><stop id="stop3945-58-1" offset="0" style="stop-color:#000;stop-opacity:.06666667"/><stop id="stop3947-4-84" offset="1" style="stop-color:#000;stop-opacity:0"/></linearGradient><linearGradient id="linearGradient4488" x1="6" x2="10.2" y1="90" y2="85.8" gradientTransform="matrix(0.19047619,0,0,0.19047619,-1.1428568,-1.1428576)" gradientUnits="userSpaceOnUse" spreadMethod="reflect" xlink:href="#linearGradient3943-8-7"/><linearGradient id="linearGradient4419-6" x1="1.8" x2="6" y1="94.2" y2="90" gradientTransform="matrix(0.23809524,0,0,0.23809524,-0.428571,73.571428)" gradientUnits="userSpaceOnUse" spreadMethod="reflect" xlink:href="#linearGradient3943-8-8"/><linearGradient id="linearGradient3943-8-8"><stop id="stop3945-58-9" offset="0" style="stop-color:#000;stop-opacity:.06666667"/><stop id="stop3947-4-6" offset="1" style="stop-color:#000;stop-opacity:0"/></linearGradient><linearGradient id="linearGradient4488-3" x1="6" x2="10.2" y1="90" y2="85.8" gradientTransform="matrix(0.19047619,0,0,0.19047619,-1.1428568,-1.1428576)" gradientUnits="userSpaceOnUse" spreadMethod="reflect" xlink:href="#linearGradient3943-8-8"/><linearGradient id="linearGradient4525" x1="6" x2="10.2" y1="90" y2="85.8" gradientTransform="matrix(0.19047619,0,0,0.19047619,-1.1428568,138.05714)" gradientUnits="userSpaceOnUse" spreadMethod="reflect" xlink:href="#linearGradient3943-8-0"/><linearGradient id="linearGradient4534" x1="6" x2="10.2" y1="90" y2="85.8" gradientTransform="matrix(0.19047619,0,0,0.19047619,-1.1428568,78.857142)" gradientUnits="userSpaceOnUse" spreadMethod="reflect" xlink:href="#linearGradient3943-8"/><filter id="filter4554" width="2.2" height="2.2" x="-.6" y="-.6"><feGaussianBlur id="feGaussianBlur4556" stdDeviation="1.5"/></filter><filter id="filter4558" width="2.2" height="2.2" x="-.6" y="-.6"><feGaussianBlur id="feGaussianBlur4560" stdDeviation="1.5"/></filter><filter id="filter4562" width="2.2" height="2.2" x="-.6" y="-.6"><feGaussianBlur id="feGaussianBlur4564" stdDeviation="1.5"/></filter><clipPath id="clipPath4573" clipPathUnits="userSpaceOnUse"><path id="path4575" d="m 8,83 c -1.656854,0 -3,1.343146 -3,3 0,0.0766 0.02561,0.143592 0.03125,0.21875 C 4.70449,86.096666 4.36934,86 4,86 c -1.656854,0 -3,1.343146 -3,3 0,1.656854 1.343146,3 3,3 l 8,0 c 1.656854,0 3,-1.343146 3,-3 0,-1.656854 -1.343146,-3 -3,-3 -0.36934,0 -0.70449,0.09667 -1.03125,0.21875 C 10.97439,86.143592 11,86.076601 11,86 11,84.343146 9.656854,83 8,83 z" style="color:#000;fill:#fff;fill-opacity:1;fill-rule:nonzero;stroke:none;stroke-width:.80000001;marker:none;visibility:visible;display:inline;overflow:visible;enable-background:accumulate"/></clipPath></defs><metadata id="metadata2413"/><g id="layer1" transform="translate(0,-80)" style="display:inline"><rect id="rect3196" width="16" height="16" x="-96" y="0" rx="2" ry="2" transform="matrix(0,-1,1,0,0,0)" style="fill:url(#linearGradient4417-5);fill-opacity:1;fill-rule:nonzero;stroke:none;display:inline;color:#000;stroke-width:.80000000999999998;marker:none;visibility:visible;overflow:visible;enable-background:accumulate"/><path style="opacity:.4;fill:url(#linearGradient3629);fill-opacity:1;fill-rule:nonzero;stroke:none;display:inline" id="rect2835" d="m 0,94 c 0,1.108 0.892,2 2,2 l 12,0 c 1.108,0 2,-0.892 2,-2 l 0,-12 c 0,-1.108 -0.892,-2 -2,-2 L 2,80 c -1.108,0 -2,0.892 -2,2 l 0,12 z m 0.96875,0 0,-12 c 0,-0.583199 0.4480507,-1.03125 1.03125,-1.03125 l 12,0 c 0.583199,0 1.03125,0.448051 1.03125,1.03125 l 0,12 c 0,0.583199 -0.448051,1.03125 -1.03125,1.03125 l -12,0 C 1.4168007,95.03125 0.96875,94.583199 0.96875,94 z"/><path id="path2843" d="m 2,80.96875 c -0.5831993,0 -1.03125,0.448051 -1.03125,1.03125 l 0,1 c 0,-0.583199 0.4480507,-1.03125 1.03125,-1.03125 l 12,0 c 0.583199,0 1.03125,0.448051 1.03125,1.03125 l 0,-1 c 0,-0.583199 -0.448051,-1.03125 -1.03125,-1.03125 l -12,0 z" style="opacity:.35;fill:#fff;fill-opacity:1;fill-rule:nonzero;stroke:none;display:inline"/><rect id="rect3360" width="16" height="16" x="0" y="80" rx="2" ry="2" style="color:#000;fill:url(#linearGradient4534);fill-opacity:1;fill-rule:nonzero;stroke:none;marker:none;visibility:visible;display:inline;overflow:visible;enable-background:accumulate"/><path id="path4552" d="m 8,90 c -1.420161,0 -2.571429,0.447715 -2.571429,1 0,0.02553 0.02195,0.04786 0.02679,0.07292 C 5.175277,91.032222 4.888006,91 4.571429,91 3.151268,91 2,91.447715 2,92 c 0,0.552285 1.151268,1 2.571429,1 l 6.857142,0 C 12.848732,93 14,92.552285 14,92 c 0,-0.552285 -1.151268,-1 -2.571429,-1 -0.316577,0 -0.603848,0.03222 -0.883928,0.07292 0.0048,-0.02505 0.02679,-0.04738 0.02679,-0.07292 0,-0.552285 -1.151268,-1 -2.571429,-1 z" style="color:#000;fill:#000;fill-opacity:1;fill-rule:nonzero;stroke:none;stroke-width:.80000000999999998;marker:none;visibility:visible;display:inline;overflow:visible;enable-background:accumulate;opacity:.5"/><path style="color:#000;fill:#fff;fill-opacity:1;fill-rule:nonzero;stroke:none;stroke-width:.80000001;marker:none;visibility:visible;display:inline;overflow:visible;enable-background:accumulate" id="path4537" d="m 8,83 c -1.656854,0 -3,1.343146 -3,3 0,0.0766 0.02561,0.143592 0.03125,0.21875 C 4.70449,86.096666 4.36934,86 4,86 c -1.656854,0 -3,1.343146 -3,3 0,1.656854 1.343146,3 3,3 l 8,0 c 1.656854,0 3,-1.343146 3,-3 0,-1.656854 -1.343146,-3 -3,-3 -0.36934,0 -0.70449,0.09667 -1.03125,0.21875 C 10.97439,86.143592 11,86.076601 11,86 11,84.343146 9.656854,83 8,83 z"/><g id="g4566" clip-path="url(#clipPath4573)"><path style="color:#000;fill:#000;fill-opacity:1;fill-rule:nonzero;stroke:none;stroke-width:.80000000999999998;marker:none;visibility:visible;display:inline;overflow:visible;enable-background:accumulate;opacity:.14999999999999999;filter:url(#filter4554)" id="path4543" d="M 7,9 A 3,3 0 1 1 1,9 3,3 0 1 1 7,9 z" transform="matrix(0.5,0,0,0.5,1.5,83)"/><path id="path4545" d="M 7,9 A 3,3 0 1 1 1,9 3,3 0 1 1 7,9 z" transform="matrix(0.5,0,0,0.5,6.5,80)" style="color:#000;fill:#000;fill-opacity:1;fill-rule:nonzero;stroke:none;stroke-width:.80000000999999998;marker:none;visibility:visible;display:inline;overflow:visible;enable-background:accumulate;opacity:.14999999999999999;filter:url(#filter4558)"/><path style="color:#000;fill:#000;fill-opacity:1;fill-rule:nonzero;stroke:none;stroke-width:.80000000999999998;marker:none;visibility:visible;display:inline;overflow:visible;enable-background:accumulate;opacity:.14999999999999999;filter:url(#filter4562)" id="path4547" d="M 7,9 A 3,3 0 1 1 1,9 3,3 0 1 1 7,9 z" transform="matrix(0.5,0,0,0.5,11.5,84)"/></g><path style="fill:#f17b27;fill-opacity:1;stroke:none" id="path3977" d="M 7,86 10,87.999999 7,90 z"/></g></svg>